# File created by Blade
# Date/Time:  Wed Jan 21 16:33:30 2015
# Frame Rate: 120.000 fps
#------------------------------------------------------
:FULLY-SPECIFIED
:DEGREES
1613
root 20.439563 35.420606 -21.607954 153.295196 93.390662 151.378431
Spine -13.844867 2.844355 -0.833653
Head 6.472631 -2.686954 1.763751
LeftShoulder -13.258212 -32.080227 22.837230
LeftArm 4.008051 -1.974556 -1.841743
LeftForeArm 15.785737 -0.000000 -3.537334
LeftHand -11.208333 -0.000000 -3.655604
LeftHandThumb1 -26.253704 0.000000 33.147579
RightShoulder -12.052498 -7.306996 -11.376644
RightArm 3.119655 44.209594 8.165096
RightForeArm -38.878805 -0.000000 3.820135
RightHand -7.206320 0.000000 7.570339
RightHandThumb1 -24.326973 -0.000000 -32.862282
LeftUpLeg 6.734679 19.034738 3.181199
LeftLeg -5.641667 -0.000000 0.000000
LeftFoot -20.453736 32.347316 -11.923060
LeftToeBase 24.774677 -0.000000 -0.000000
RightUpLeg 5.435253 -10.662686 -0.679264
RightLeg -2.024047 -0.000000 0.000000
RightFoot -21.871726 -24.080688 16.012577
RightToeBase 24.193464 -0.000000 -0.000000
1614
root 20.440044 35.420265 -21.615529 153.028691 93.340275 151.113798
Spine -13.879394 2.807929 -0.838665
Head 6.523581 -2.655475 1.763870
LeftShoulder -13.264061 -32.091829 22.852578
LeftArm 3.993601 -1.919378 -1.872469
LeftForeArm 15.784236 -0.000000 -3.521672
LeftHand -11.239137 -0.000000 -3.689327
LeftHandThumb1 -26.253704 0.000000 33.147579
RightShoulder -12.049410 -7.283140 -11.379370
RightArm 3.149471 44.200181 8.151965
RightForeArm -38.902602 -0.000000 3.836786
RightHand -7.250277 -0.000000 7.648724
RightHandThumb1 -24.326973 -0.000000 -32.862282
LeftUpLeg 6.749372 19.030317 3.161618
LeftLeg -5.681011 -0.000000 0.000000
LeftFoot -20.419678 32.307245 -11.896885
LeftToeBase 24.785928 -0.000000 -0.000000
RightUpLeg 5.434893 -10.694165 -0.703641
RightLeg -2.000551 -0.000000 0.000000
RightFoot -21.891473 -24.082732 16.020274
RightToeBase 24.214256 -0.000000 -0.000000
1615
root 20.439662 35.420138 -21.623396 152.765308 93.290384 150.844403
Spine -13.916824 2.762482 -0.840096
Head 6.569516 -2.641717 1.753546
LeftShoulder -13.278179 -32.088007 22.851634
LeftArm 3.993946 -1.905994 -1.882033
LeftForeArm 15.706952 -0.000000 -3.529073
LeftHand -11.228784 0.000000 -3.717685
LeftHandThumb1 -26.253704 0.000000 33.147579
RightShoulder -12.043493 -7.246899 -11.382718
RightArm 3.183831 44.194086 8.141685
RightForeArm -38.902484 -0.000000 3.868087
RightHand -7.283062 -0.000000 7.702005
RightHandThumb1 -24.326973 -0.000000 -32.862282
LeftUpLeg 6.752193 19.025730 3.139730
LeftLeg -5.716218 -0.000000 0.000000
LeftFoot -20.386279 32.265724 -11.878399
LeftToeBase 24.761918 -0.000000 -0.000000
RightUpLeg 5.428273 -10.697501 -0.723269
RightLeg -1.989217 -0.000000 0.000000
RightFoot -21.900011 -24.118362 16.026636
RightToeBase 24.157474 -0.000000 -0.000000
1616
root 20.439704 35.420110 -21.630855 152.429306 93.236375 150.501068
Spine -13.955333 2.702009 -0.840380
Head 6.616078 -2.619601 1.752171
LeftShoulder -13.304935 -32.229387 22.949513
LeftArm 3.905642 -1.738589 -1.945701
LeftForeArm 15.659205 -0.000000 -3.489839
LeftHand -11.270206 -0.000000 -3.762706
LeftHandThumb1 -26.253704 0.000000 33.147579
RightShoulder -12.023356 -7.211901 -11.388690
RightArm 3.208131 44.163436 8.127181
RightForeArm -38.888776 -0.000000 3.875199
RightHand -7.223779 -0.000000 7.674149
RightHandThumb1 -24.326973 -0.000000 -32.862282
LeftUpLeg 6.752015 19.003311 3.116434
LeftLeg -5.748464 -0.000000 0.000000
LeftFoot -20.368337 32.232954 -11.871290
LeftToeBase 24.759950 -0.000000 -0.000000
RightUpLeg 5.419671 -10.733324 -0.742578
RightLeg -1.972771 -0.000000 0.000000
RightFoot -21.920776 -24.115239 16.048114
RightToeBase 24.170655 -0.000000 -0.000000
1617
root 20.440034 35.419924 -21.638324 152.055908 93.186052 150.116257
Spine -13.999271 2.667769 -0.839874
Head 6.647893 -2.620132 1.742397
LeftShoulder -13.325256 -32.231078 22.947682
LeftArm 3.930714 -1.748518 -1.963750
LeftForeArm 15.618092 -0.000000 -3.505600
LeftHand -11.215595 -0.000000 -3.787294
LeftHandThumb1 -26.253704 0.000000 33.147579
RightShoulder -12.028584 -7.220390 -11.393110
RightArm 3.236662 44.165612 8.127080
RightForeArm -38.920450 -0.000000 3.888756
RightHand -7.182026 0.000000 7.632941
RightHandThumb1 -24.326973 -0.000000 -32.862282
LeftUpLeg 6.746674 18.967729 3.093995
LeftLeg -5.780125 -0.000000 0.000000
LeftFoot -20.319652 32.224874 -11.819304
LeftToeBase 24.713649 -0.000000 -0.000000
RightUpLeg 5.416971 -10.745870 -0.756393
RightLeg -1.973474 -0.000000 0.000000
RightFoot -21.934951 -24.144257 16.067394
RightToeBase 24.231690 -0.000000 -0.000000
1618
root 20.440227 35.419429 -21.646007 151.639308 93.133328 149.697251
Spine -14.028396 2.627676 -0.837600
Head 6.683215 -2.606577 1.734748
LeftShoulder -13.353397 -32.093624 22.867981
LeftArm 4.041636 -1.912778 -1.935712
LeftForeArm 15.651323 -0.000000 -3.568386
LeftHand -11.161892 0.000000 -3.725978
LeftHandThumb1 -26.253704 0.000000 33.147579
RightShoulder -12.023063 -7.210094 -11.398576
RightArm 3.248026 44.114396 8.105332
RightForeArm -38.908853 -0.000000 3.885535
RightHand -7.185478 -0.000000 7.671504
RightHandThumb1 -24.326973 -0.000000 -32.862282
LeftUpLeg 6.747816 18.926825 3.075285
LeftLeg -5.805056 -0.000000 0.000000
LeftFoot -20.334695 32.204636 -11.845858
LeftToeBase 24.773340 -0.000000 -0.000000
RightUpLeg 5.415241 -10.772541 -0.773645
RightLeg -1.957937 -0.000000 0.000000
RightFoot -21.941518 -24.159840 16.057123
RightToeBase 24.207644 -0.000000 -0.000000
1619
root 20.440363 35.418802 -21.652830 151.170091 93.081858 149.229047
Spine -14.047713 2.612641 -0.841897
Head 6.695769 -2.642038 1.723249
LeftShoulder -13.344980 -32.092878 22.850313
LeftArm 4.053095 -1.954835 -1.952115
LeftForeArm 15.628737 -0.000000 -3.558736
LeftHand -11.169571 -0.000000 -3.755804
LeftHandThumb1 -26.253704 0.000000 33.147579
RightShoulder -12.038202 -7.196861 -11.404220
RightArm 3.234052 44.064462 8.079349
RightForeArm -38.895532 -0.000000 3.904202
RightHand -7.185146 0.000000 7.720758
RightHandThumb1 -24.326973 -0.000000 -32.862282
LeftUpLeg 6.746301 18.876963 3.058725
LeftLeg -5.819110 -0.000000 0.000000
LeftFoot -20.315369 32.205158 -11.810096
LeftToeBase 24.733275 -0.000000 -0.000000
RightUpLeg 5.427593 -10.810272 -0.788829
RightLeg -1.964710 -0.000000 0.000000
RightFoot -21.947250 -24.160623 16.075260
RightToeBase 24.207399 -0.000000 -0.000000
1620
root 20.442141 35.418102 -21.659801 150.713109 93.036041 148.784929
Spine -14.052384 2.590599 -0.838885
Head 6.701593 -2.642979 1.708355
LeftShoulder -13.344451 -32.110379 22.850788
LeftArm 4.044421 -1.949659 -1.973114
LeftForeArm 15.561502 -0.000000 -3.555855
LeftHand -11.158905 -0.000000 -3.841459
LeftHandThumb1 -26.253704 0.000000 33.147579
RightShoulder -12.041773 -7.231841 -11.399588
RightArm 3.237342 44.069040 8.058302
RightForeArm -38.898629 0.000000 3.906287
RightHand -7.098531 -0.000000 7.663812
RightHandThumb1 -24.326973 -0.000000 -32.862282
LeftUpLeg 6.769411 18.807530 3.047841
LeftLeg -5.849323 -0.000000 0.000000
LeftFoot -20.312366 32.228778 -11.788436
LeftToeBase 24.770681 -0.000000 -0.000000
RightUpLeg 5.460753 -10.829105 -0.802816
RightLeg -1.986694 -0.000000 0.000000
RightFoot -21.940125 -24.190797 16.105195
RightToeBase 24.160947 -0.000000 -0.000000
1621
root 20.443289 35.417432 -21.665928 150.417861 92.989839 148.500103
Spine -14.056250 2.573845 -0.851911
Head 6.692338 -2.641853 1.707201
LeftShoulder -13.342587 -32.107733 22.852842
LeftArm 4.041789 -1.968000 -1.996460
LeftForeArm 15.505063 0.000000 -3.547512
LeftHand -11.173629 -0.000000 -3.973242
LeftHandThumb1 -26.253704 0.000000 33.147579
RightShoulder -12.044829 -7.201808 -11.399522
RightArm 3.211334 43.994924 8.020770
RightForeArm -38.921212 0.000000 3.920938
RightHand -7.142357 -0.000000 7.775391
RightHandThumb1 -24.326973 -0.000000 -32.862282
LeftUpLeg 6.777140 18.764759 3.030142
LeftLeg -5.854195 -0.000000 0.000000
LeftFoot -20.310281 32.223863 -11.785247
LeftToeBase 24.755756 -0.000000 -0.000000
RightUpLeg 5.488205 -10.837104 -0.819872
RightLeg -1.999257 -0.000000 0.000000
RightFoot -21.960689 -24.270486 16.057304
RightToeBase 24.274594 -0.000000 -0.000000
1622
root 20.445694 35.416804 -21.672272 150.125212 92.949681 148.234880
Spine -14.039950 2.569048 -0.863112
Head 6.681589 -2.653555 1.695619
LeftShoulder -13.327791 -32.183995 22.889203
LeftArm 3.992706 -1.881778 -2.039749
LeftForeArm 15.460761 -0.000000 -3.526835
LeftHand -11.157756 -0.000000 -3.994528
LeftHandThumb1 -26.253704 0.000000 33.147579
RightShoulder -12.051837 -7.201277 -11.386087
RightArm 3.193035 43.968353 7.978525
RightForeArm -38.915498 -0.000000 3.918793
RightHand -7.094281 -0.000000 7.754535
RightHandThumb1 -24.326973 -0.000000 -32.862282
LeftUpLeg 6.803941 18.752620 3.022165
LeftLeg -5.857150 -0.000000 0.000000
LeftFoot -20.309259 32.196103 -11.784457
LeftToeBase 24.728014 -0.000000 -0.000000
RightUpLeg 5.539354 -10.877831 -0.845278
RightLeg -2.030325 -0.000000 0.000000
RightFoot -21.948112 -24.255315 16.102758
RightToeBase 24.193998 -0.000000 -0.000000
1623
root 20.448202 35.416241 -21.677987 149.917681 92.919199 148.048030
Spine -14.033685 2.569707 -0.876229
Head 6.680603 -2.670675 1.710243
LeftShoulder -13.324368 -32.161369 22.879477
LeftArm 4.011324 -1.911905 -2.057161
LeftForeArm 15.486746 -0.000000 -3.538939
LeftHand -11.154796 -0.000000 -3.993812
LeftHandThumb1 -26.253704 0.000000 33.147579
RightShoulder -12.061606 -7.216725 -11.375212
RightArm 3.186651 43.978318 7.962624
RightForeArm -38.909984 -0.000000 3.929214
RightHand -7.134974 -0.000000 7.850771
RightHandThumb1 -24.326973 -0.000000 -32.862282
LeftUpLeg 6.826764 18.742866 3.012761
LeftLeg -5.864519 -0.000000 0.000000
LeftFoot -20.301661 32.194732 -11.758496
LeftToeBase 24.751482 -0.000000 -0.000000
RightUpLeg 5.580329 -10.885896 -0.862942
RightLeg -2.048168 -0.000000 0.000000
RightFoot -21.956717 -24.293997 16.101911
RightToeBase 24.212415 -0.000000 -0.000000
1624
root 20.449994 35.415738 -21.683641 149.702468 92.882551 147.853689
Spine -14.019442 2.556755 -0.891407
Head 6.658163 -2.673495 1.715940
LeftShoulder -13.326879 -32.159417 22.889783
LeftArm 4.007542 -1.913963 -2.079585
LeftForeArm 15.476043 -0.000000 -3.538971
LeftHand -11.154030 -0.000000 -3.994548
LeftHandThumb1 -26.253704 0.000000 33.147579
RightShoulder -12.071881 -7.210306 -11.358100
RightArm 3.191220 43.985807 7.938478
RightForeArm -38.917288 0.000000 3.915947
RightHand -7.132490 -0.000000 7.892367
RightHandThumb1 -24.326973 -0.000000 -32.862282
LeftUpLeg 6.844525 18.723155 3.000719
LeftLeg -5.864407 -0.000000 0.000000
LeftFoot -20.300986 32.178791 -11.755847
LeftToeBase 24.749451 -0.000000 -0.000000
RightUpLeg 5.618461 -10.941059 -0.891146
RightLeg -2.070583 -0.000000 0.000000
RightFoot -21.945572 -24.258840 16.109969
RightToeBase 24.177958 -0.000000 -0.000000
